<?xml version="1.0" encoding="utf-8" standalone="no"?>
<!DOCTYPE svg PUBLIC "-//W3C//DTD SVG 1.1//EN"
  "http://www.w3.org/Graphics/SVG/1.1/DTD/svg11.dtd">
<svg xmlns:xlink="http://www.w3.org/1999/xlink" width="360pt" height="216pt" viewBox="0 0 360 216" xmlns="http://www.w3.org/2000/svg" version="1.1">
 <metadata>
  <rdf:RDF xmlns:dc="http://purl.org/dc/elements/1.1/" xmlns:cc="http://creativecommons.org/ns#" xmlns:rdf="http://www.w3.org/1999/02/22-rdf-syntax-ns#">
   <cc:Work>
    <dc:type rdf:resource="http://purl.org/dc/dcmitype/StillImage"/>
    <dc:date>2022-08-22T15:16:24.243453</dc:date>
    <dc:format>image/svg+xml</dc:format>
    <dc:creator>
     <cc:Agent>
      <dc:title>Matplotlib v3.5.1, https://matplotlib.org/</dc:title>
     </cc:Agent>
    </dc:creator>
   </cc:Work>
  </rdf:RDF>
 </metadata>
 <defs>
  <style type="text/css">*{stroke-linejoin: round; stroke-linecap: butt}</style>
 </defs>
 <g id="figure_1">
  <g id="patch_1">
   <path d="M 0 216 
L 360 216 
L 360 0 
L 0 0 
z
" style="fill: #ffffff"/>
  </g>
  <g id="axes_1">
   <g id="patch_2">
    <path d="M 54 183.6 
L 324 183.6 
L 324 25.92 
L 54 25.92 
z
" style="fill: #ffffff"/>
   </g>
   <g id="matplotlib.axis_1">
    <g id="xtick_1">
     <g id="line2d_1">
      <defs>
       <path id="me174574535" d="M 0 0 
L 0 -2 
" style="stroke: #000000"/>
      </defs>
      <g>
       <use xlink:href="#me174574535" x="66.272727" y="183.6" style="stroke: #000000"/>
      </g>
     </g>
     <g id="text_1">
      <!-- 1 -->
      <g transform="translate(63.091477 194.698438)scale(0.1 -0.1)">
       <defs>
        <path id="DejaVuSans-31" d="M 794 531 
L 1825 531 
L 1825 4091 
L 703 3866 
L 703 4441 
L 1819 4666 
L 2450 4666 
L 2450 531 
L 3481 531 
L 3481 0 
L 794 0 
L 794 531 
z
" transform="scale(0.015625)"/>
       </defs>
       <use xlink:href="#DejaVuSans-31"/>
      </g>
     </g>
    </g>
    <g id="xtick_2">
     <g id="line2d_2">
      <g>
       <use xlink:href="#me174574535" x="101.337662" y="183.6" style="stroke: #000000"/>
      </g>
     </g>
     <g id="text_2">
      <!-- 2 -->
      <g transform="translate(98.156412 194.698438)scale(0.1 -0.1)">
       <defs>
        <path id="DejaVuSans-32" d="M 1228 531 
L 3431 531 
L 3431 0 
L 469 0 
L 469 531 
Q 828 903 1448 1529 
Q 2069 2156 2228 2338 
Q 2531 2678 2651 2914 
Q 2772 3150 2772 3378 
Q 2772 3750 2511 3984 
Q 2250 4219 1831 4219 
Q 1534 4219 1204 4116 
Q 875 4013 500 3803 
L 500 4441 
Q 881 4594 1212 4672 
Q 1544 4750 1819 4750 
Q 2544 4750 2975 4387 
Q 3406 4025 3406 3419 
Q 3406 3131 3298 2873 
Q 3191 2616 2906 2266 
Q 2828 2175 2409 1742 
Q 1991 1309 1228 531 
z
" transform="scale(0.015625)"/>
       </defs>
       <use xlink:href="#DejaVuSans-32"/>
      </g>
     </g>
    </g>
    <g id="xtick_3">
     <g id="line2d_3">
      <g>
       <use xlink:href="#me174574535" x="136.402597" y="183.6" style="stroke: #000000"/>
      </g>
     </g>
     <g id="text_3">
      <!-- 3 -->
      <g transform="translate(133.221347 194.698438)scale(0.1 -0.1)">
       <defs>
        <path id="DejaVuSans-33" d="M 2597 2516 
Q 3050 2419 3304 2112 
Q 3559 1806 3559 1356 
Q 3559 666 3084 287 
Q 2609 -91 1734 -91 
Q 1441 -91 1130 -33 
Q 819 25 488 141 
L 488 750 
Q 750 597 1062 519 
Q 1375 441 1716 441 
Q 2309 441 2620 675 
Q 2931 909 2931 1356 
Q 2931 1769 2642 2001 
Q 2353 2234 1838 2234 
L 1294 2234 
L 1294 2753 
L 1863 2753 
Q 2328 2753 2575 2939 
Q 2822 3125 2822 3475 
Q 2822 3834 2567 4026 
Q 2313 4219 1838 4219 
Q 1578 4219 1281 4162 
Q 984 4106 628 3988 
L 628 4550 
Q 988 4650 1302 4700 
Q 1616 4750 1894 4750 
Q 2613 4750 3031 4423 
Q 3450 4097 3450 3541 
Q 3450 3153 3228 2886 
Q 3006 2619 2597 2516 
z
" transform="scale(0.015625)"/>
       </defs>
       <use xlink:href="#DejaVuSans-33"/>
      </g>
     </g>
    </g>
    <g id="xtick_4">
     <g id="line2d_4">
      <g>
       <use xlink:href="#me174574535" x="171.467532" y="183.6" style="stroke: #000000"/>
      </g>
     </g>
     <g id="text_4">
      <!-- 4 -->
      <g transform="translate(168.286282 194.698438)scale(0.1 -0.1)">
       <defs>
        <path id="DejaVuSans-34" d="M 2419 4116 
L 825 1625 
L 2419 1625 
L 2419 4116 
z
M 2253 4666 
L 3047 4666 
L 3047 1625 
L 3713 1625 
L 3713 1100 
L 3047 1100 
L 3047 0 
L 2419 0 
L 2419 1100 
L 313 1100 
L 313 1709 
L 2253 4666 
z
" transform="scale(0.015625)"/>
       </defs>
       <use xlink:href="#DejaVuSans-34"/>
      </g>
     </g>
    </g>
    <g id="xtick_5">
     <g id="line2d_5">
      <g>
       <use xlink:href="#me174574535" x="206.532468" y="183.6" style="stroke: #000000"/>
      </g>
     </g>
     <g id="text_5">
      <!-- 5 -->
      <g transform="translate(203.351218 194.698438)scale(0.1 -0.1)">
       <defs>
        <path id="DejaVuSans-35" d="M 691 4666 
L 3169 4666 
L 3169 4134 
L 1269 4134 
L 1269 2991 
Q 1406 3038 1543 3061 
Q 1681 3084 1819 3084 
Q 2600 3084 3056 2656 
Q 3513 2228 3513 1497 
Q 3513 744 3044 326 
Q 2575 -91 1722 -91 
Q 1428 -91 1123 -41 
Q 819 9 494 109 
L 494 744 
Q 775 591 1075 516 
Q 1375 441 1709 441 
Q 2250 441 2565 725 
Q 2881 1009 2881 1497 
Q 2881 1984 2565 2268 
Q 2250 2553 1709 2553 
Q 1456 2553 1204 2497 
Q 953 2441 691 2322 
L 691 4666 
z
" transform="scale(0.015625)"/>
       </defs>
       <use xlink:href="#DejaVuSans-35"/>
      </g>
     </g>
    </g>
    <g id="xtick_6">
     <g id="line2d_6">
      <g>
       <use xlink:href="#me174574535" x="241.597403" y="183.6" style="stroke: #000000"/>
      </g>
     </g>
     <g id="text_6">
      <!-- 6 -->
      <g transform="translate(238.416153 194.698438)scale(0.1 -0.1)">
       <defs>
        <path id="DejaVuSans-36" d="M 2113 2584 
Q 1688 2584 1439 2293 
Q 1191 2003 1191 1497 
Q 1191 994 1439 701 
Q 1688 409 2113 409 
Q 2538 409 2786 701 
Q 3034 994 3034 1497 
Q 3034 2003 2786 2293 
Q 2538 2584 2113 2584 
z
M 3366 4563 
L 3366 3988 
Q 3128 4100 2886 4159 
Q 2644 4219 2406 4219 
Q 1781 4219 1451 3797 
Q 1122 3375 1075 2522 
Q 1259 2794 1537 2939 
Q 1816 3084 2150 3084 
Q 2853 3084 3261 2657 
Q 3669 2231 3669 1497 
Q 3669 778 3244 343 
Q 2819 -91 2113 -91 
Q 1303 -91 875 529 
Q 447 1150 447 2328 
Q 447 3434 972 4092 
Q 1497 4750 2381 4750 
Q 2619 4750 2861 4703 
Q 3103 4656 3366 4563 
z
" transform="scale(0.015625)"/>
       </defs>
       <use xlink:href="#DejaVuSans-36"/>
      </g>
     </g>
    </g>
    <g id="xtick_7">
     <g id="line2d_7">
      <g>
       <use xlink:href="#me174574535" x="276.662338" y="183.6" style="stroke: #000000"/>
      </g>
     </g>
     <g id="text_7">
      <!-- 7 -->
      <g transform="translate(273.481088 194.698438)scale(0.1 -0.1)">
       <defs>
        <path id="DejaVuSans-37" d="M 525 4666 
L 3525 4666 
L 3525 4397 
L 1831 0 
L 1172 0 
L 2766 4134 
L 525 4134 
L 525 4666 
z
" transform="scale(0.015625)"/>
       </defs>
       <use xlink:href="#DejaVuSans-37"/>
      </g>
     </g>
    </g>
    <g id="xtick_8">
     <g id="line2d_8">
      <g>
       <use xlink:href="#me174574535" x="311.727273" y="183.6" style="stroke: #000000"/>
      </g>
     </g>
     <g id="text_8">
      <!-- 8 -->
      <g transform="translate(308.546023 194.698438)scale(0.1 -0.1)">
       <defs>
        <path id="DejaVuSans-38" d="M 2034 2216 
Q 1584 2216 1326 1975 
Q 1069 1734 1069 1313 
Q 1069 891 1326 650 
Q 1584 409 2034 409 
Q 2484 409 2743 651 
Q 3003 894 3003 1313 
Q 3003 1734 2745 1975 
Q 2488 2216 2034 2216 
z
M 1403 2484 
Q 997 2584 770 2862 
Q 544 3141 544 3541 
Q 544 4100 942 4425 
Q 1341 4750 2034 4750 
Q 2731 4750 3128 4425 
Q 3525 4100 3525 3541 
Q 3525 3141 3298 2862 
Q 3072 2584 2669 2484 
Q 3125 2378 3379 2068 
Q 3634 1759 3634 1313 
Q 3634 634 3220 271 
Q 2806 -91 2034 -91 
Q 1263 -91 848 271 
Q 434 634 434 1313 
Q 434 1759 690 2068 
Q 947 2378 1403 2484 
z
M 1172 3481 
Q 1172 3119 1398 2916 
Q 1625 2713 2034 2713 
Q 2441 2713 2670 2916 
Q 2900 3119 2900 3481 
Q 2900 3844 2670 4047 
Q 2441 4250 2034 4250 
Q 1625 4250 1398 4047 
Q 1172 3844 1172 3481 
z
" transform="scale(0.015625)"/>
       </defs>
       <use xlink:href="#DejaVuSans-38"/>
      </g>
     </g>
    </g>
    <g id="text_9">
     <!-- Block/Epoch -->
     <g transform="translate(161.776875 206.856875)scale(0.08 -0.08)">
      <defs>
       <path id="DejaVuSans-Bold-42" d="M 2456 2859 
Q 2741 2859 2887 2984 
Q 3034 3109 3034 3353 
Q 3034 3594 2887 3720 
Q 2741 3847 2456 3847 
L 1791 3847 
L 1791 2859 
L 2456 2859 
z
M 2497 819 
Q 2859 819 3042 972 
Q 3225 1125 3225 1434 
Q 3225 1738 3044 1889 
Q 2863 2041 2497 2041 
L 1791 2041 
L 1791 819 
L 2497 819 
z
M 3616 2497 
Q 4003 2384 4215 2081 
Q 4428 1778 4428 1338 
Q 4428 663 3972 331 
Q 3516 0 2584 0 
L 588 0 
L 588 4666 
L 2394 4666 
Q 3366 4666 3802 4372 
Q 4238 4078 4238 3431 
Q 4238 3091 4078 2852 
Q 3919 2613 3616 2497 
z
" transform="scale(0.015625)"/>
       <path id="DejaVuSans-Bold-6c" d="M 538 4863 
L 1656 4863 
L 1656 0 
L 538 0 
L 538 4863 
z
" transform="scale(0.015625)"/>
       <path id="DejaVuSans-Bold-6f" d="M 2203 2784 
Q 1831 2784 1636 2517 
Q 1441 2250 1441 1747 
Q 1441 1244 1636 976 
Q 1831 709 2203 709 
Q 2569 709 2762 976 
Q 2956 1244 2956 1747 
Q 2956 2250 2762 2517 
Q 2569 2784 2203 2784 
z
M 2203 3584 
Q 3106 3584 3614 3096 
Q 4122 2609 4122 1747 
Q 4122 884 3614 396 
Q 3106 -91 2203 -91 
Q 1297 -91 786 396 
Q 275 884 275 1747 
Q 275 2609 786 3096 
Q 1297 3584 2203 3584 
z
" transform="scale(0.015625)"/>
       <path id="DejaVuSans-Bold-63" d="M 3366 3391 
L 3366 2478 
Q 3138 2634 2908 2709 
Q 2678 2784 2431 2784 
Q 1963 2784 1702 2511 
Q 1441 2238 1441 1747 
Q 1441 1256 1702 982 
Q 1963 709 2431 709 
Q 2694 709 2930 787 
Q 3166 866 3366 1019 
L 3366 103 
Q 3103 6 2833 -42 
Q 2563 -91 2291 -91 
Q 1344 -91 809 395 
Q 275 881 275 1747 
Q 275 2613 809 3098 
Q 1344 3584 2291 3584 
Q 2566 3584 2833 3536 
Q 3100 3488 3366 3391 
z
" transform="scale(0.015625)"/>
       <path id="DejaVuSans-Bold-6b" d="M 538 4863 
L 1656 4863 
L 1656 2216 
L 2944 3500 
L 4244 3500 
L 2534 1894 
L 4378 0 
L 3022 0 
L 1656 1459 
L 1656 0 
L 538 0 
L 538 4863 
z
" transform="scale(0.015625)"/>
       <path id="DejaVuSans-Bold-2f" d="M 1644 4666 
L 2338 4666 
L 691 -594 
L 0 -594 
L 1644 4666 
z
" transform="scale(0.015625)"/>
       <path id="DejaVuSans-Bold-45" d="M 588 4666 
L 3834 4666 
L 3834 3756 
L 1791 3756 
L 1791 2888 
L 3713 2888 
L 3713 1978 
L 1791 1978 
L 1791 909 
L 3903 909 
L 3903 0 
L 588 0 
L 588 4666 
z
" transform="scale(0.015625)"/>
       <path id="DejaVuSans-Bold-70" d="M 1656 506 
L 1656 -1331 
L 538 -1331 
L 538 3500 
L 1656 3500 
L 1656 2988 
Q 1888 3294 2169 3439 
Q 2450 3584 2816 3584 
Q 3463 3584 3878 3070 
Q 4294 2556 4294 1747 
Q 4294 938 3878 423 
Q 3463 -91 2816 -91 
Q 2450 -91 2169 54 
Q 1888 200 1656 506 
z
M 2400 2772 
Q 2041 2772 1848 2508 
Q 1656 2244 1656 1747 
Q 1656 1250 1848 986 
Q 2041 722 2400 722 
Q 2759 722 2948 984 
Q 3138 1247 3138 1747 
Q 3138 2247 2948 2509 
Q 2759 2772 2400 2772 
z
" transform="scale(0.015625)"/>
       <path id="DejaVuSans-Bold-68" d="M 4056 2131 
L 4056 0 
L 2931 0 
L 2931 347 
L 2931 1625 
Q 2931 2084 2911 2256 
Q 2891 2428 2841 2509 
Q 2775 2619 2662 2680 
Q 2550 2741 2406 2741 
Q 2056 2741 1856 2470 
Q 1656 2200 1656 1722 
L 1656 0 
L 538 0 
L 538 4863 
L 1656 4863 
L 1656 2988 
Q 1909 3294 2193 3439 
Q 2478 3584 2822 3584 
Q 3428 3584 3742 3212 
Q 4056 2841 4056 2131 
z
" transform="scale(0.015625)"/>
      </defs>
      <use xlink:href="#DejaVuSans-Bold-42"/>
      <use xlink:href="#DejaVuSans-Bold-6c" x="76.220703"/>
      <use xlink:href="#DejaVuSans-Bold-6f" x="110.498047"/>
      <use xlink:href="#DejaVuSans-Bold-63" x="179.199219"/>
      <use xlink:href="#DejaVuSans-Bold-6b" x="238.476562"/>
      <use xlink:href="#DejaVuSans-Bold-2f" x="304.980469"/>
      <use xlink:href="#DejaVuSans-Bold-45" x="341.503906"/>
      <use xlink:href="#DejaVuSans-Bold-70" x="409.814453"/>
      <use xlink:href="#DejaVuSans-Bold-6f" x="481.396484"/>
      <use xlink:href="#DejaVuSans-Bold-63" x="550.097656"/>
      <use xlink:href="#DejaVuSans-Bold-68" x="609.375"/>
     </g>
    </g>
   </g>
   <g id="matplotlib.axis_2">
    <g id="ytick_1">
     <g id="line2d_9">
      <defs>
       <path id="m69a94b8bec" d="M 0 0 
L 2 0 
" style="stroke: #000000"/>
      </defs>
      <g>
       <use xlink:href="#m69a94b8bec" x="54" y="158.793997" style="stroke: #000000"/>
      </g>
     </g>
     <g id="text_10">
      <!-- −0.25 -->
      <g transform="translate(19.854687 162.593216)scale(0.1 -0.1)">
       <defs>
        <path id="DejaVuSans-2212" d="M 678 2272 
L 4684 2272 
L 4684 1741 
L 678 1741 
L 678 2272 
z
" transform="scale(0.015625)"/>
        <path id="DejaVuSans-30" d="M 2034 4250 
Q 1547 4250 1301 3770 
Q 1056 3291 1056 2328 
Q 1056 1369 1301 889 
Q 1547 409 2034 409 
Q 2525 409 2770 889 
Q 3016 1369 3016 2328 
Q 3016 3291 2770 3770 
Q 2525 4250 2034 4250 
z
M 2034 4750 
Q 2819 4750 3233 4129 
Q 3647 3509 3647 2328 
Q 3647 1150 3233 529 
Q 2819 -91 2034 -91 
Q 1250 -91 836 529 
Q 422 1150 422 2328 
Q 422 3509 836 4129 
Q 1250 4750 2034 4750 
z
" transform="scale(0.015625)"/>
        <path id="DejaVuSans-2e" d="M 684 794 
L 1344 794 
L 1344 0 
L 684 0 
L 684 794 
z
" transform="scale(0.015625)"/>
       </defs>
       <use xlink:href="#DejaVuSans-2212"/>
       <use xlink:href="#DejaVuSans-30" x="83.789062"/>
       <use xlink:href="#DejaVuSans-2e" x="147.412109"/>
       <use xlink:href="#DejaVuSans-32" x="179.199219"/>
       <use xlink:href="#DejaVuSans-35" x="242.822266"/>
      </g>
     </g>
    </g>
    <g id="ytick_2">
     <g id="line2d_10">
      <g>
       <use xlink:href="#m69a94b8bec" x="54" y="133.220362" style="stroke: #000000"/>
      </g>
     </g>
    </g>
    <g id="ytick_3">
     <g id="line2d_11">
      <g>
       <use xlink:href="#m69a94b8bec" x="54" y="107.646728" style="stroke: #000000"/>
      </g>
     </g>
     <g id="text_11">
      <!-- 0.25 -->
      <g transform="translate(28.234375 111.445946)scale(0.1 -0.1)">
       <use xlink:href="#DejaVuSans-30"/>
       <use xlink:href="#DejaVuSans-2e" x="63.623047"/>
       <use xlink:href="#DejaVuSans-32" x="95.410156"/>
       <use xlink:href="#DejaVuSans-35" x="159.033203"/>
      </g>
     </g>
    </g>
    <g id="ytick_4">
     <g id="line2d_12">
      <g>
       <use xlink:href="#m69a94b8bec" x="54" y="82.073093" style="stroke: #000000"/>
      </g>
     </g>
    </g>
    <g id="ytick_5">
     <g id="line2d_13">
      <g>
       <use xlink:href="#m69a94b8bec" x="54" y="56.499458" style="stroke: #000000"/>
      </g>
     </g>
     <g id="text_12">
      <!-- 0.75 -->
      <g transform="translate(28.234375 60.298677)scale(0.1 -0.1)">
       <use xlink:href="#DejaVuSans-30"/>
       <use xlink:href="#DejaVuSans-2e" x="63.623047"/>
       <use xlink:href="#DejaVuSans-37" x="95.410156"/>
       <use xlink:href="#DejaVuSans-35" x="159.033203"/>
      </g>
     </g>
    </g>
    <g id="ytick_6">
     <g id="line2d_14">
      <g>
       <use xlink:href="#m69a94b8bec" x="54" y="30.925823" style="stroke: #000000"/>
      </g>
     </g>
    </g>
    <g id="text_13">
     <!-- Correlation Coefficient (Pearson's r) -->
     <g transform="translate(14.190937 186.21875)rotate(-90)scale(0.08 -0.08)">
      <defs>
       <path id="DejaVuSans-Bold-43" d="M 4288 256 
Q 3956 84 3597 -3 
Q 3238 -91 2847 -91 
Q 1681 -91 1000 561 
Q 319 1213 319 2328 
Q 319 3447 1000 4098 
Q 1681 4750 2847 4750 
Q 3238 4750 3597 4662 
Q 3956 4575 4288 4403 
L 4288 3438 
Q 3953 3666 3628 3772 
Q 3303 3878 2944 3878 
Q 2300 3878 1931 3465 
Q 1563 3053 1563 2328 
Q 1563 1606 1931 1193 
Q 2300 781 2944 781 
Q 3303 781 3628 887 
Q 3953 994 4288 1222 
L 4288 256 
z
" transform="scale(0.015625)"/>
       <path id="DejaVuSans-Bold-72" d="M 3138 2547 
Q 2991 2616 2845 2648 
Q 2700 2681 2553 2681 
Q 2122 2681 1889 2404 
Q 1656 2128 1656 1613 
L 1656 0 
L 538 0 
L 538 3500 
L 1656 3500 
L 1656 2925 
Q 1872 3269 2151 3426 
Q 2431 3584 2822 3584 
Q 2878 3584 2943 3579 
Q 3009 3575 3134 3559 
L 3138 2547 
z
" transform="scale(0.015625)"/>
       <path id="DejaVuSans-Bold-65" d="M 4031 1759 
L 4031 1441 
L 1416 1441 
Q 1456 1047 1700 850 
Q 1944 653 2381 653 
Q 2734 653 3104 758 
Q 3475 863 3866 1075 
L 3866 213 
Q 3469 63 3072 -14 
Q 2675 -91 2278 -91 
Q 1328 -91 801 392 
Q 275 875 275 1747 
Q 275 2603 792 3093 
Q 1309 3584 2216 3584 
Q 3041 3584 3536 3087 
Q 4031 2591 4031 1759 
z
M 2881 2131 
Q 2881 2450 2695 2645 
Q 2509 2841 2209 2841 
Q 1884 2841 1681 2658 
Q 1478 2475 1428 2131 
L 2881 2131 
z
" transform="scale(0.015625)"/>
       <path id="DejaVuSans-Bold-61" d="M 2106 1575 
Q 1756 1575 1579 1456 
Q 1403 1338 1403 1106 
Q 1403 894 1545 773 
Q 1688 653 1941 653 
Q 2256 653 2472 879 
Q 2688 1106 2688 1447 
L 2688 1575 
L 2106 1575 
z
M 3816 1997 
L 3816 0 
L 2688 0 
L 2688 519 
Q 2463 200 2181 54 
Q 1900 -91 1497 -91 
Q 953 -91 614 226 
Q 275 544 275 1050 
Q 275 1666 698 1953 
Q 1122 2241 2028 2241 
L 2688 2241 
L 2688 2328 
Q 2688 2594 2478 2717 
Q 2269 2841 1825 2841 
Q 1466 2841 1156 2769 
Q 847 2697 581 2553 
L 581 3406 
Q 941 3494 1303 3539 
Q 1666 3584 2028 3584 
Q 2975 3584 3395 3211 
Q 3816 2838 3816 1997 
z
" transform="scale(0.015625)"/>
       <path id="DejaVuSans-Bold-74" d="M 1759 4494 
L 1759 3500 
L 2913 3500 
L 2913 2700 
L 1759 2700 
L 1759 1216 
Q 1759 972 1856 886 
Q 1953 800 2241 800 
L 2816 800 
L 2816 0 
L 1856 0 
Q 1194 0 917 276 
Q 641 553 641 1216 
L 641 2700 
L 84 2700 
L 84 3500 
L 641 3500 
L 641 4494 
L 1759 4494 
z
" transform="scale(0.015625)"/>
       <path id="DejaVuSans-Bold-69" d="M 538 3500 
L 1656 3500 
L 1656 0 
L 538 0 
L 538 3500 
z
M 538 4863 
L 1656 4863 
L 1656 3950 
L 538 3950 
L 538 4863 
z
" transform="scale(0.015625)"/>
       <path id="DejaVuSans-Bold-6e" d="M 4056 2131 
L 4056 0 
L 2931 0 
L 2931 347 
L 2931 1631 
Q 2931 2084 2911 2256 
Q 2891 2428 2841 2509 
Q 2775 2619 2662 2680 
Q 2550 2741 2406 2741 
Q 2056 2741 1856 2470 
Q 1656 2200 1656 1722 
L 1656 0 
L 538 0 
L 538 3500 
L 1656 3500 
L 1656 2988 
Q 1909 3294 2193 3439 
Q 2478 3584 2822 3584 
Q 3428 3584 3742 3212 
Q 4056 2841 4056 2131 
z
" transform="scale(0.015625)"/>
       <path id="DejaVuSans-Bold-20" transform="scale(0.015625)"/>
       <path id="DejaVuSans-Bold-66" d="M 2841 4863 
L 2841 4128 
L 2222 4128 
Q 1984 4128 1890 4042 
Q 1797 3956 1797 3744 
L 1797 3500 
L 2753 3500 
L 2753 2700 
L 1797 2700 
L 1797 0 
L 678 0 
L 678 2700 
L 122 2700 
L 122 3500 
L 678 3500 
L 678 3744 
Q 678 4316 997 4589 
Q 1316 4863 1984 4863 
L 2841 4863 
z
" transform="scale(0.015625)"/>
       <path id="DejaVuSans-Bold-28" d="M 2413 -844 
L 1484 -844 
Q 1006 -72 778 623 
Q 550 1319 550 2003 
Q 550 2688 779 3389 
Q 1009 4091 1484 4856 
L 2413 4856 
Q 2013 4116 1813 3408 
Q 1613 2700 1613 2009 
Q 1613 1319 1811 609 
Q 2009 -100 2413 -844 
z
" transform="scale(0.015625)"/>
       <path id="DejaVuSans-Bold-50" d="M 588 4666 
L 2584 4666 
Q 3475 4666 3951 4270 
Q 4428 3875 4428 3144 
Q 4428 2409 3951 2014 
Q 3475 1619 2584 1619 
L 1791 1619 
L 1791 0 
L 588 0 
L 588 4666 
z
M 1791 3794 
L 1791 2491 
L 2456 2491 
Q 2806 2491 2997 2661 
Q 3188 2831 3188 3144 
Q 3188 3456 2997 3625 
Q 2806 3794 2456 3794 
L 1791 3794 
z
" transform="scale(0.015625)"/>
       <path id="DejaVuSans-Bold-73" d="M 3272 3391 
L 3272 2541 
Q 2913 2691 2578 2766 
Q 2244 2841 1947 2841 
Q 1628 2841 1473 2761 
Q 1319 2681 1319 2516 
Q 1319 2381 1436 2309 
Q 1553 2238 1856 2203 
L 2053 2175 
Q 2913 2066 3209 1816 
Q 3506 1566 3506 1031 
Q 3506 472 3093 190 
Q 2681 -91 1863 -91 
Q 1516 -91 1145 -36 
Q 775 19 384 128 
L 384 978 
Q 719 816 1070 734 
Q 1422 653 1784 653 
Q 2113 653 2278 743 
Q 2444 834 2444 1013 
Q 2444 1163 2330 1236 
Q 2216 1309 1875 1350 
L 1678 1375 
Q 931 1469 631 1722 
Q 331 1975 331 2491 
Q 331 3047 712 3315 
Q 1094 3584 1881 3584 
Q 2191 3584 2531 3537 
Q 2872 3491 3272 3391 
z
" transform="scale(0.015625)"/>
       <path id="DejaVuSans-Bold-27" d="M 1350 4666 
L 1350 2931 
L 609 2931 
L 609 4666 
L 1350 4666 
z
" transform="scale(0.015625)"/>
       <path id="DejaVuSans-Bold-29" d="M 513 -844 
Q 913 -100 1113 609 
Q 1313 1319 1313 2009 
Q 1313 2700 1113 3408 
Q 913 4116 513 4856 
L 1441 4856 
Q 1916 4091 2145 3389 
Q 2375 2688 2375 2003 
Q 2375 1319 2147 623 
Q 1919 -72 1441 -844 
L 513 -844 
z
" transform="scale(0.015625)"/>
      </defs>
      <use xlink:href="#DejaVuSans-Bold-43"/>
      <use xlink:href="#DejaVuSans-Bold-6f" x="73.388672"/>
      <use xlink:href="#DejaVuSans-Bold-72" x="142.089844"/>
      <use xlink:href="#DejaVuSans-Bold-72" x="191.40625"/>
      <use xlink:href="#DejaVuSans-Bold-65" x="240.722656"/>
      <use xlink:href="#DejaVuSans-Bold-6c" x="308.544922"/>
      <use xlink:href="#DejaVuSans-Bold-61" x="342.822266"/>
      <use xlink:href="#DejaVuSans-Bold-74" x="410.302734"/>
      <use xlink:href="#DejaVuSans-Bold-69" x="458.105469"/>
      <use xlink:href="#DejaVuSans-Bold-6f" x="492.382812"/>
      <use xlink:href="#DejaVuSans-Bold-6e" x="561.083984"/>
      <use xlink:href="#DejaVuSans-Bold-20" x="632.275391"/>
      <use xlink:href="#DejaVuSans-Bold-43" x="667.089844"/>
      <use xlink:href="#DejaVuSans-Bold-6f" x="740.478516"/>
      <use xlink:href="#DejaVuSans-Bold-65" x="809.179688"/>
      <use xlink:href="#DejaVuSans-Bold-66" x="877.001953"/>
      <use xlink:href="#DejaVuSans-Bold-66" x="920.507812"/>
      <use xlink:href="#DejaVuSans-Bold-69" x="964.013672"/>
      <use xlink:href="#DejaVuSans-Bold-63" x="998.291016"/>
      <use xlink:href="#DejaVuSans-Bold-69" x="1057.568359"/>
      <use xlink:href="#DejaVuSans-Bold-65" x="1091.845703"/>
      <use xlink:href="#DejaVuSans-Bold-6e" x="1159.667969"/>
      <use xlink:href="#DejaVuSans-Bold-74" x="1230.859375"/>
      <use xlink:href="#DejaVuSans-Bold-20" x="1278.662109"/>
      <use xlink:href="#DejaVuSans-Bold-28" x="1313.476562"/>
      <use xlink:href="#DejaVuSans-Bold-50" x="1359.179688"/>
      <use xlink:href="#DejaVuSans-Bold-65" x="1432.470703"/>
      <use xlink:href="#DejaVuSans-Bold-61" x="1500.292969"/>
      <use xlink:href="#DejaVuSans-Bold-72" x="1567.773438"/>
      <use xlink:href="#DejaVuSans-Bold-73" x="1617.089844"/>
      <use xlink:href="#DejaVuSans-Bold-6f" x="1676.611328"/>
      <use xlink:href="#DejaVuSans-Bold-6e" x="1745.3125"/>
      <use xlink:href="#DejaVuSans-Bold-27" x="1816.503906"/>
      <use xlink:href="#DejaVuSans-Bold-73" x="1847.119141"/>
      <use xlink:href="#DejaVuSans-Bold-20" x="1906.640625"/>
      <use xlink:href="#DejaVuSans-Bold-72" x="1941.455078"/>
      <use xlink:href="#DejaVuSans-Bold-29" x="1990.771484"/>
     </g>
    </g>
   </g>
   <g id="line2d_15">
    <path d="M 66.272727 166.253775 
L 101.337662 37.513517 
L 136.402597 37.998622 
L 171.467532 35.228394 
L 206.532468 34.545984 
L 241.597403 33.900546 
L 276.662338 34.41718 
L 311.727273 33.201479 
" clip-path="url(#p5ab7425c56)" style="fill: none; stroke: #cb181d; stroke-width: 1.5; stroke-linecap: square"/>
    <defs>
     <path id="m7bcb7bd8ab" d="M 0 1.5 
C 0.397805 1.5 0.77937 1.341951 1.06066 1.06066 
C 1.341951 0.77937 1.5 0.397805 1.5 0 
C 1.5 -0.397805 1.341951 -0.77937 1.06066 -1.06066 
C 0.77937 -1.341951 0.397805 -1.5 0 -1.5 
C -0.397805 -1.5 -0.77937 -1.341951 -1.06066 -1.06066 
C -1.341951 -0.77937 -1.5 -0.397805 -1.5 0 
C -1.5 0.397805 -1.341951 0.77937 -1.06066 1.06066 
C -0.77937 1.341951 -0.397805 1.5 0 1.5 
z
" style="stroke: #cb181d"/>
    </defs>
    <g clip-path="url(#p5ab7425c56)">
     <use xlink:href="#m7bcb7bd8ab" x="66.272727" y="166.253775" style="fill: #cb181d; stroke: #cb181d"/>
     <use xlink:href="#m7bcb7bd8ab" x="101.337662" y="37.513517" style="fill: #cb181d; stroke: #cb181d"/>
     <use xlink:href="#m7bcb7bd8ab" x="136.402597" y="37.998622" style="fill: #cb181d; stroke: #cb181d"/>
     <use xlink:href="#m7bcb7bd8ab" x="171.467532" y="35.228394" style="fill: #cb181d; stroke: #cb181d"/>
     <use xlink:href="#m7bcb7bd8ab" x="206.532468" y="34.545984" style="fill: #cb181d; stroke: #cb181d"/>
     <use xlink:href="#m7bcb7bd8ab" x="241.597403" y="33.900546" style="fill: #cb181d; stroke: #cb181d"/>
     <use xlink:href="#m7bcb7bd8ab" x="276.662338" y="34.41718" style="fill: #cb181d; stroke: #cb181d"/>
     <use xlink:href="#m7bcb7bd8ab" x="311.727273" y="33.201479" style="fill: #cb181d; stroke: #cb181d"/>
    </g>
   </g>
   <g id="line2d_16">
    <path d="M 66.272727 127.903406 
L 101.337662 46.419785 
L 136.402597 36.942251 
L 171.467532 34.833764 
L 206.532468 34.502248 
L 241.597403 33.897426 
L 276.662338 34.416461 
L 311.727273 33.201369 
" clip-path="url(#p5ab7425c56)" style="fill: none; stroke: #ea362a; stroke-width: 1.5; stroke-linecap: square"/>
    <defs>
     <path id="m50d647925c" d="M 0 1.5 
C 0.397805 1.5 0.77937 1.341951 1.06066 1.06066 
C 1.341951 0.77937 1.5 0.397805 1.5 0 
C 1.5 -0.397805 1.341951 -0.77937 1.06066 -1.06066 
C 0.77937 -1.341951 0.397805 -1.5 0 -1.5 
C -0.397805 -1.5 -0.77937 -1.341951 -1.06066 -1.06066 
C -1.341951 -0.77937 -1.5 -0.397805 -1.5 0 
C -1.5 0.397805 -1.341951 0.77937 -1.06066 1.06066 
C -0.77937 1.341951 -0.397805 1.5 0 1.5 
z
" style="stroke: #ea362a"/>
    </defs>
    <g clip-path="url(#p5ab7425c56)">
     <use xlink:href="#m50d647925c" x="66.272727" y="127.903406" style="fill: #ea362a; stroke: #ea362a"/>
     <use xlink:href="#m50d647925c" x="101.337662" y="46.419785" style="fill: #ea362a; stroke: #ea362a"/>
     <use xlink:href="#m50d647925c" x="136.402597" y="36.942251" style="fill: #ea362a; stroke: #ea362a"/>
     <use xlink:href="#m50d647925c" x="171.467532" y="34.833764" style="fill: #ea362a; stroke: #ea362a"/>
     <use xlink:href="#m50d647925c" x="206.532468" y="34.502248" style="fill: #ea362a; stroke: #ea362a"/>
     <use xlink:href="#m50d647925c" x="241.597403" y="33.897426" style="fill: #ea362a; stroke: #ea362a"/>
     <use xlink:href="#m50d647925c" x="276.662338" y="34.416461" style="fill: #ea362a; stroke: #ea362a"/>
     <use xlink:href="#m50d647925c" x="311.727273" y="33.201369" style="fill: #ea362a; stroke: #ea362a"/>
    </g>
   </g>
   <g id="line2d_17">
    <path d="M 66.272727 176.432727 
L 101.337662 52.477895 
L 136.402597 41.356279 
L 171.467532 38.145683 
L 206.532468 34.254157 
L 241.597403 33.876318 
L 276.662338 34.41586 
L 311.727273 33.201412 
" clip-path="url(#p5ab7425c56)" style="fill: none; stroke: #f75c41; stroke-width: 1.5; stroke-linecap: square"/>
    <defs>
     <path id="me58e187f15" d="M 0 1.5 
C 0.397805 1.5 0.77937 1.341951 1.06066 1.06066 
C 1.341951 0.77937 1.5 0.397805 1.5 0 
C 1.5 -0.397805 1.341951 -0.77937 1.06066 -1.06066 
C 0.77937 -1.341951 0.397805 -1.5 0 -1.5 
C -0.397805 -1.5 -0.77937 -1.341951 -1.06066 -1.06066 
C -1.341951 -0.77937 -1.5 -0.397805 -1.5 0 
C -1.5 0.397805 -1.341951 0.77937 -1.06066 1.06066 
C -0.77937 1.341951 -0.397805 1.5 0 1.5 
z
" style="stroke: #f75c41"/>
    </defs>
    <g clip-path="url(#p5ab7425c56)">
     <use xlink:href="#me58e187f15" x="66.272727" y="176.432727" style="fill: #f75c41; stroke: #f75c41"/>
     <use xlink:href="#me58e187f15" x="101.337662" y="52.477895" style="fill: #f75c41; stroke: #f75c41"/>
     <use xlink:href="#me58e187f15" x="136.402597" y="41.356279" style="fill: #f75c41; stroke: #f75c41"/>
     <use xlink:href="#me58e187f15" x="171.467532" y="38.145683" style="fill: #f75c41; stroke: #f75c41"/>
     <use xlink:href="#me58e187f15" x="206.532468" y="34.254157" style="fill: #f75c41; stroke: #f75c41"/>
     <use xlink:href="#me58e187f15" x="241.597403" y="33.876318" style="fill: #f75c41; stroke: #f75c41"/>
     <use xlink:href="#me58e187f15" x="276.662338" y="34.41586" style="fill: #f75c41; stroke: #f75c41"/>
     <use xlink:href="#me58e187f15" x="311.727273" y="33.201412" style="fill: #f75c41; stroke: #f75c41"/>
    </g>
   </g>
   <g id="line2d_18">
    <path d="M 66.272727 91.753162 
L 101.337662 52.680567 
L 136.402597 53.5407 
L 171.467532 43.913551 
L 206.532468 41.423814 
L 241.597403 33.434686 
L 276.662338 34.319063 
L 311.727273 33.198252 
" clip-path="url(#p5ab7425c56)" style="fill: none; stroke: #fc8161; stroke-width: 1.5; stroke-linecap: square"/>
    <defs>
     <path id="m13fb71f675" d="M 0 1.5 
C 0.397805 1.5 0.77937 1.341951 1.06066 1.06066 
C 1.341951 0.77937 1.5 0.397805 1.5 0 
C 1.5 -0.397805 1.341951 -0.77937 1.06066 -1.06066 
C 0.77937 -1.341951 0.397805 -1.5 0 -1.5 
C -0.397805 -1.5 -0.77937 -1.341951 -1.06066 -1.06066 
C -1.341951 -0.77937 -1.5 -0.397805 -1.5 0 
C -1.5 0.397805 -1.341951 0.77937 -1.06066 1.06066 
C -0.77937 1.341951 -0.397805 1.5 0 1.5 
z
" style="stroke: #fc8161"/>
    </defs>
    <g clip-path="url(#p5ab7425c56)">
     <use xlink:href="#m13fb71f675" x="66.272727" y="91.753162" style="fill: #fc8161; stroke: #fc8161"/>
     <use xlink:href="#m13fb71f675" x="101.337662" y="52.680567" style="fill: #fc8161; stroke: #fc8161"/>
     <use xlink:href="#m13fb71f675" x="136.402597" y="53.5407" style="fill: #fc8161; stroke: #fc8161"/>
     <use xlink:href="#m13fb71f675" x="171.467532" y="43.913551" style="fill: #fc8161; stroke: #fc8161"/>
     <use xlink:href="#m13fb71f675" x="206.532468" y="41.423814" style="fill: #fc8161; stroke: #fc8161"/>
     <use xlink:href="#m13fb71f675" x="241.597403" y="33.434686" style="fill: #fc8161; stroke: #fc8161"/>
     <use xlink:href="#m13fb71f675" x="276.662338" y="34.319063" style="fill: #fc8161; stroke: #fc8161"/>
     <use xlink:href="#m13fb71f675" x="311.727273" y="33.198252" style="fill: #fc8161; stroke: #fc8161"/>
    </g>
   </g>
   <g id="line2d_19">
    <path d="M 66.272727 175.199708 
L 101.337662 52.681289 
L 136.402597 53.685136 
L 171.467532 57.145413 
L 206.532468 42.713809 
L 241.597403 42.555461 
L 276.662338 35.174813 
L 311.727273 33.087273 
" clip-path="url(#p5ab7425c56)" style="fill: none; stroke: #fca486; stroke-width: 1.5; stroke-linecap: square"/>
    <defs>
     <path id="m2ac6e9dc4e" d="M 0 1.5 
C 0.397805 1.5 0.77937 1.341951 1.06066 1.06066 
C 1.341951 0.77937 1.5 0.397805 1.5 0 
C 1.5 -0.397805 1.341951 -0.77937 1.06066 -1.06066 
C 0.77937 -1.341951 0.397805 -1.5 0 -1.5 
C -0.397805 -1.5 -0.77937 -1.341951 -1.06066 -1.06066 
C -1.341951 -0.77937 -1.5 -0.397805 -1.5 0 
C -1.5 0.397805 -1.341951 0.77937 -1.06066 1.06066 
C -0.77937 1.341951 -0.397805 1.5 0 1.5 
z
" style="stroke: #fca486"/>
    </defs>
    <g clip-path="url(#p5ab7425c56)">
     <use xlink:href="#m2ac6e9dc4e" x="66.272727" y="175.199708" style="fill: #fca486; stroke: #fca486"/>
     <use xlink:href="#m2ac6e9dc4e" x="101.337662" y="52.681289" style="fill: #fca486; stroke: #fca486"/>
     <use xlink:href="#m2ac6e9dc4e" x="136.402597" y="53.685136" style="fill: #fca486; stroke: #fca486"/>
     <use xlink:href="#m2ac6e9dc4e" x="171.467532" y="57.145413" style="fill: #fca486; stroke: #fca486"/>
     <use xlink:href="#m2ac6e9dc4e" x="206.532468" y="42.713809" style="fill: #fca486; stroke: #fca486"/>
     <use xlink:href="#m2ac6e9dc4e" x="241.597403" y="42.555461" style="fill: #fca486; stroke: #fca486"/>
     <use xlink:href="#m2ac6e9dc4e" x="276.662338" y="35.174813" style="fill: #fca486; stroke: #fca486"/>
     <use xlink:href="#m2ac6e9dc4e" x="311.727273" y="33.087273" style="fill: #fca486; stroke: #fca486"/>
    </g>
   </g>
   <g id="line2d_20">
    <path d="M 66.272727 95.230125 
L 101.337662 52.681317 
L 136.402597 53.691849 
L 171.467532 58.976471 
L 206.532468 56.797568 
L 241.597403 42.756596 
L 276.662338 43.452324 
L 311.727273 37.234856 
" clip-path="url(#p5ab7425c56)" style="fill: none; stroke: #fdc6b0; stroke-width: 1.5; stroke-linecap: square"/>
    <defs>
     <path id="m9a58a4c535" d="M 0 1.5 
C 0.397805 1.5 0.77937 1.341951 1.06066 1.06066 
C 1.341951 0.77937 1.5 0.397805 1.5 0 
C 1.5 -0.397805 1.341951 -0.77937 1.06066 -1.06066 
C 0.77937 -1.341951 0.397805 -1.5 0 -1.5 
C -0.397805 -1.5 -0.77937 -1.341951 -1.06066 -1.06066 
C -1.341951 -0.77937 -1.5 -0.397805 -1.5 0 
C -1.5 0.397805 -1.341951 0.77937 -1.06066 1.06066 
C -0.77937 1.341951 -0.397805 1.5 0 1.5 
z
" style="stroke: #fdc6b0"/>
    </defs>
    <g clip-path="url(#p5ab7425c56)">
     <use xlink:href="#m9a58a4c535" x="66.272727" y="95.230125" style="fill: #fdc6b0; stroke: #fdc6b0"/>
     <use xlink:href="#m9a58a4c535" x="101.337662" y="52.681317" style="fill: #fdc6b0; stroke: #fdc6b0"/>
     <use xlink:href="#m9a58a4c535" x="136.402597" y="53.691849" style="fill: #fdc6b0; stroke: #fdc6b0"/>
     <use xlink:href="#m9a58a4c535" x="171.467532" y="58.976471" style="fill: #fdc6b0; stroke: #fdc6b0"/>
     <use xlink:href="#m9a58a4c535" x="206.532468" y="56.797568" style="fill: #fdc6b0; stroke: #fdc6b0"/>
     <use xlink:href="#m9a58a4c535" x="241.597403" y="42.756596" style="fill: #fdc6b0; stroke: #fdc6b0"/>
     <use xlink:href="#m9a58a4c535" x="276.662338" y="43.452324" style="fill: #fdc6b0; stroke: #fdc6b0"/>
     <use xlink:href="#m9a58a4c535" x="311.727273" y="37.234856" style="fill: #fdc6b0; stroke: #fdc6b0"/>
    </g>
   </g>
   <g id="patch_3">
    <path d="M 54 183.6 
L 54 25.92 
" style="fill: none; stroke: #000000; stroke-width: 0.8; stroke-linejoin: miter; stroke-linecap: square"/>
   </g>
   <g id="patch_4">
    <path d="M 54 183.6 
L 324 183.6 
" style="fill: none; stroke: #000000; stroke-width: 0.8; stroke-linejoin: miter; stroke-linecap: square"/>
   </g>
   <g id="text_14">
    <!-- Human-Relu Network CCs by Initialisation -->
    <g transform="translate(47.529375 12.036)scale(0.12 -0.12)">
     <defs>
      <path id="DejaVuSans-Bold-48" d="M 588 4666 
L 1791 4666 
L 1791 2888 
L 3566 2888 
L 3566 4666 
L 4769 4666 
L 4769 0 
L 3566 0 
L 3566 1978 
L 1791 1978 
L 1791 0 
L 588 0 
L 588 4666 
z
" transform="scale(0.015625)"/>
      <path id="DejaVuSans-Bold-75" d="M 500 1363 
L 500 3500 
L 1625 3500 
L 1625 3150 
Q 1625 2866 1622 2436 
Q 1619 2006 1619 1863 
Q 1619 1441 1641 1255 
Q 1663 1069 1716 984 
Q 1784 875 1895 815 
Q 2006 756 2150 756 
Q 2500 756 2700 1025 
Q 2900 1294 2900 1772 
L 2900 3500 
L 4019 3500 
L 4019 0 
L 2900 0 
L 2900 506 
Q 2647 200 2364 54 
Q 2081 -91 1741 -91 
Q 1134 -91 817 281 
Q 500 653 500 1363 
z
" transform="scale(0.015625)"/>
      <path id="DejaVuSans-Bold-6d" d="M 3781 2919 
Q 3994 3244 4286 3414 
Q 4578 3584 4928 3584 
Q 5531 3584 5847 3212 
Q 6163 2841 6163 2131 
L 6163 0 
L 5038 0 
L 5038 1825 
Q 5041 1866 5042 1909 
Q 5044 1953 5044 2034 
Q 5044 2406 4934 2573 
Q 4825 2741 4581 2741 
Q 4263 2741 4089 2478 
Q 3916 2216 3909 1719 
L 3909 0 
L 2784 0 
L 2784 1825 
Q 2784 2406 2684 2573 
Q 2584 2741 2328 2741 
Q 2006 2741 1831 2477 
Q 1656 2213 1656 1722 
L 1656 0 
L 531 0 
L 531 3500 
L 1656 3500 
L 1656 2988 
Q 1863 3284 2130 3434 
Q 2397 3584 2719 3584 
Q 3081 3584 3359 3409 
Q 3638 3234 3781 2919 
z
" transform="scale(0.015625)"/>
      <path id="DejaVuSans-Bold-2d" d="M 347 2297 
L 2309 2297 
L 2309 1388 
L 347 1388 
L 347 2297 
z
" transform="scale(0.015625)"/>
      <path id="DejaVuSans-Bold-52" d="M 2297 2597 
Q 2675 2597 2839 2737 
Q 3003 2878 3003 3200 
Q 3003 3519 2839 3656 
Q 2675 3794 2297 3794 
L 1791 3794 
L 1791 2597 
L 2297 2597 
z
M 1791 1766 
L 1791 0 
L 588 0 
L 588 4666 
L 2425 4666 
Q 3347 4666 3776 4356 
Q 4206 4047 4206 3378 
Q 4206 2916 3982 2619 
Q 3759 2322 3309 2181 
Q 3556 2125 3751 1926 
Q 3947 1728 4147 1325 
L 4800 0 
L 3519 0 
L 2950 1159 
Q 2778 1509 2601 1637 
Q 2425 1766 2131 1766 
L 1791 1766 
z
" transform="scale(0.015625)"/>
      <path id="DejaVuSans-Bold-4e" d="M 588 4666 
L 1931 4666 
L 3628 1466 
L 3628 4666 
L 4769 4666 
L 4769 0 
L 3425 0 
L 1728 3200 
L 1728 0 
L 588 0 
L 588 4666 
z
" transform="scale(0.015625)"/>
      <path id="DejaVuSans-Bold-77" d="M 225 3500 
L 1313 3500 
L 1900 1088 
L 2491 3500 
L 3425 3500 
L 4013 1113 
L 4603 3500 
L 5691 3500 
L 4769 0 
L 3547 0 
L 2956 2406 
L 2369 0 
L 1147 0 
L 225 3500 
z
" transform="scale(0.015625)"/>
      <path id="DejaVuSans-Bold-62" d="M 2400 722 
Q 2759 722 2948 984 
Q 3138 1247 3138 1747 
Q 3138 2247 2948 2509 
Q 2759 2772 2400 2772 
Q 2041 2772 1848 2508 
Q 1656 2244 1656 1747 
Q 1656 1250 1848 986 
Q 2041 722 2400 722 
z
M 1656 2988 
Q 1888 3294 2169 3439 
Q 2450 3584 2816 3584 
Q 3463 3584 3878 3070 
Q 4294 2556 4294 1747 
Q 4294 938 3878 423 
Q 3463 -91 2816 -91 
Q 2450 -91 2169 54 
Q 1888 200 1656 506 
L 1656 0 
L 538 0 
L 538 4863 
L 1656 4863 
L 1656 2988 
z
" transform="scale(0.015625)"/>
      <path id="DejaVuSans-Bold-79" d="M 78 3500 
L 1197 3500 
L 2138 1125 
L 2938 3500 
L 4056 3500 
L 2584 -331 
Q 2363 -916 2067 -1148 
Q 1772 -1381 1288 -1381 
L 641 -1381 
L 641 -647 
L 991 -647 
Q 1275 -647 1404 -556 
Q 1534 -466 1606 -231 
L 1638 -134 
L 78 3500 
z
" transform="scale(0.015625)"/>
      <path id="DejaVuSans-Bold-49" d="M 588 4666 
L 1791 4666 
L 1791 0 
L 588 0 
L 588 4666 
z
" transform="scale(0.015625)"/>
     </defs>
     <use xlink:href="#DejaVuSans-Bold-48"/>
     <use xlink:href="#DejaVuSans-Bold-75" x="83.691406"/>
     <use xlink:href="#DejaVuSans-Bold-6d" x="154.882812"/>
     <use xlink:href="#DejaVuSans-Bold-61" x="259.082031"/>
     <use xlink:href="#DejaVuSans-Bold-6e" x="326.5625"/>
     <use xlink:href="#DejaVuSans-Bold-2d" x="397.753906"/>
     <use xlink:href="#DejaVuSans-Bold-52" x="439.257812"/>
     <use xlink:href="#DejaVuSans-Bold-65" x="516.259766"/>
     <use xlink:href="#DejaVuSans-Bold-6c" x="584.082031"/>
     <use xlink:href="#DejaVuSans-Bold-75" x="618.359375"/>
     <use xlink:href="#DejaVuSans-Bold-20" x="689.550781"/>
     <use xlink:href="#DejaVuSans-Bold-4e" x="724.365234"/>
     <use xlink:href="#DejaVuSans-Bold-65" x="808.056641"/>
     <use xlink:href="#DejaVuSans-Bold-74" x="875.878906"/>
     <use xlink:href="#DejaVuSans-Bold-77" x="923.681641"/>
     <use xlink:href="#DejaVuSans-Bold-6f" x="1016.064453"/>
     <use xlink:href="#DejaVuSans-Bold-72" x="1084.765625"/>
     <use xlink:href="#DejaVuSans-Bold-6b" x="1134.082031"/>
     <use xlink:href="#DejaVuSans-Bold-20" x="1200.585938"/>
     <use xlink:href="#DejaVuSans-Bold-43" x="1235.400391"/>
     <use xlink:href="#DejaVuSans-Bold-43" x="1308.789062"/>
     <use xlink:href="#DejaVuSans-Bold-73" x="1382.177734"/>
     <use xlink:href="#DejaVuSans-Bold-20" x="1441.699219"/>
     <use xlink:href="#DejaVuSans-Bold-62" x="1476.513672"/>
     <use xlink:href="#DejaVuSans-Bold-79" x="1548.095703"/>
     <use xlink:href="#DejaVuSans-Bold-20" x="1613.28125"/>
     <use xlink:href="#DejaVuSans-Bold-49" x="1648.095703"/>
     <use xlink:href="#DejaVuSans-Bold-6e" x="1685.302734"/>
     <use xlink:href="#DejaVuSans-Bold-69" x="1756.494141"/>
     <use xlink:href="#DejaVuSans-Bold-74" x="1790.771484"/>
     <use xlink:href="#DejaVuSans-Bold-69" x="1838.574219"/>
     <use xlink:href="#DejaVuSans-Bold-61" x="1872.851562"/>
     <use xlink:href="#DejaVuSans-Bold-6c" x="1940.332031"/>
     <use xlink:href="#DejaVuSans-Bold-69" x="1974.609375"/>
     <use xlink:href="#DejaVuSans-Bold-73" x="2008.886719"/>
     <use xlink:href="#DejaVuSans-Bold-61" x="2068.408203"/>
     <use xlink:href="#DejaVuSans-Bold-74" x="2135.888672"/>
     <use xlink:href="#DejaVuSans-Bold-69" x="2183.691406"/>
     <use xlink:href="#DejaVuSans-Bold-6f" x="2217.96875"/>
     <use xlink:href="#DejaVuSans-Bold-6e" x="2286.669922"/>
    </g>
   </g>
   <g id="legend_1">
    <g id="patch_5">
     <path d="M 250.009375 178.6 
L 317 178.6 
Q 319 178.6 319 176.6 
L 319 74.853125 
Q 319 72.853125 317 72.853125 
L 250.009375 72.853125 
Q 248.009375 72.853125 248.009375 74.853125 
L 248.009375 176.6 
Q 248.009375 178.6 250.009375 178.6 
z
" style="fill: #ffffff; opacity: 0.8; stroke: #cccccc; stroke-linejoin: miter"/>
    </g>
    <g id="text_15">
     <!-- variance $\sigma^2$ -->
     <g transform="translate(254.604688 84.451563)scale(0.1 -0.1)">
      <defs>
       <path id="DejaVuSans-76" d="M 191 3500 
L 800 3500 
L 1894 563 
L 2988 3500 
L 3597 3500 
L 2284 0 
L 1503 0 
L 191 3500 
z
" transform="scale(0.015625)"/>
       <path id="DejaVuSans-61" d="M 2194 1759 
Q 1497 1759 1228 1600 
Q 959 1441 959 1056 
Q 959 750 1161 570 
Q 1363 391 1709 391 
Q 2188 391 2477 730 
Q 2766 1069 2766 1631 
L 2766 1759 
L 2194 1759 
z
M 3341 1997 
L 3341 0 
L 2766 0 
L 2766 531 
Q 2569 213 2275 61 
Q 1981 -91 1556 -91 
Q 1019 -91 701 211 
Q 384 513 384 1019 
Q 384 1609 779 1909 
Q 1175 2209 1959 2209 
L 2766 2209 
L 2766 2266 
Q 2766 2663 2505 2880 
Q 2244 3097 1772 3097 
Q 1472 3097 1187 3025 
Q 903 2953 641 2809 
L 641 3341 
Q 956 3463 1253 3523 
Q 1550 3584 1831 3584 
Q 2591 3584 2966 3190 
Q 3341 2797 3341 1997 
z
" transform="scale(0.015625)"/>
       <path id="DejaVuSans-72" d="M 2631 2963 
Q 2534 3019 2420 3045 
Q 2306 3072 2169 3072 
Q 1681 3072 1420 2755 
Q 1159 2438 1159 1844 
L 1159 0 
L 581 0 
L 581 3500 
L 1159 3500 
L 1159 2956 
Q 1341 3275 1631 3429 
Q 1922 3584 2338 3584 
Q 2397 3584 2469 3576 
Q 2541 3569 2628 3553 
L 2631 2963 
z
" transform="scale(0.015625)"/>
       <path id="DejaVuSans-69" d="M 603 3500 
L 1178 3500 
L 1178 0 
L 603 0 
L 603 3500 
z
M 603 4863 
L 1178 4863 
L 1178 4134 
L 603 4134 
L 603 4863 
z
" transform="scale(0.015625)"/>
       <path id="DejaVuSans-6e" d="M 3513 2113 
L 3513 0 
L 2938 0 
L 2938 2094 
Q 2938 2591 2744 2837 
Q 2550 3084 2163 3084 
Q 1697 3084 1428 2787 
Q 1159 2491 1159 1978 
L 1159 0 
L 581 0 
L 581 3500 
L 1159 3500 
L 1159 2956 
Q 1366 3272 1645 3428 
Q 1925 3584 2291 3584 
Q 2894 3584 3203 3211 
Q 3513 2838 3513 2113 
z
" transform="scale(0.015625)"/>
       <path id="DejaVuSans-63" d="M 3122 3366 
L 3122 2828 
Q 2878 2963 2633 3030 
Q 2388 3097 2138 3097 
Q 1578 3097 1268 2742 
Q 959 2388 959 1747 
Q 959 1106 1268 751 
Q 1578 397 2138 397 
Q 2388 397 2633 464 
Q 2878 531 3122 666 
L 3122 134 
Q 2881 22 2623 -34 
Q 2366 -91 2075 -91 
Q 1284 -91 818 406 
Q 353 903 353 1747 
Q 353 2603 823 3093 
Q 1294 3584 2113 3584 
Q 2378 3584 2631 3529 
Q 2884 3475 3122 3366 
z
" transform="scale(0.015625)"/>
       <path id="DejaVuSans-65" d="M 3597 1894 
L 3597 1613 
L 953 1613 
Q 991 1019 1311 708 
Q 1631 397 2203 397 
Q 2534 397 2845 478 
Q 3156 559 3463 722 
L 3463 178 
Q 3153 47 2828 -22 
Q 2503 -91 2169 -91 
Q 1331 -91 842 396 
Q 353 884 353 1716 
Q 353 2575 817 3079 
Q 1281 3584 2069 3584 
Q 2775 3584 3186 3129 
Q 3597 2675 3597 1894 
z
M 3022 2063 
Q 3016 2534 2758 2815 
Q 2500 3097 2075 3097 
Q 1594 3097 1305 2825 
Q 1016 2553 972 2059 
L 3022 2063 
z
" transform="scale(0.015625)"/>
       <path id="DejaVuSans-20" transform="scale(0.015625)"/>
       <path id="DejaVuSans-Oblique-3c3" d="M 2219 3044 
Q 1744 3044 1422 2700 
Q 1081 2341 969 1747 
Q 844 1119 1044 756 
Q 1241 397 1706 397 
Q 2166 397 2503 759 
Q 2844 1122 2966 1747 
Q 3075 2319 2881 2700 
Q 2700 3044 2219 3044 
z
M 2309 3503 
L 4219 3500 
L 4106 2925 
L 3463 2925 
Q 3706 2438 3575 1747 
Q 3406 888 2884 400 
Q 2359 -91 1609 -91 
Q 856 -91 525 400 
Q 194 888 363 1747 
Q 528 2609 1050 3097 
Q 1484 3503 2309 3503 
z
" transform="scale(0.015625)"/>
      </defs>
      <use xlink:href="#DejaVuSans-76" transform="translate(0 0.765625)"/>
      <use xlink:href="#DejaVuSans-61" transform="translate(59.179688 0.765625)"/>
      <use xlink:href="#DejaVuSans-72" transform="translate(120.458984 0.765625)"/>
      <use xlink:href="#DejaVuSans-69" transform="translate(161.572266 0.765625)"/>
      <use xlink:href="#DejaVuSans-61" transform="translate(189.355469 0.765625)"/>
      <use xlink:href="#DejaVuSans-6e" transform="translate(250.634766 0.765625)"/>
      <use xlink:href="#DejaVuSans-63" transform="translate(314.013672 0.765625)"/>
      <use xlink:href="#DejaVuSans-65" transform="translate(368.994141 0.765625)"/>
      <use xlink:href="#DejaVuSans-20" transform="translate(430.517578 0.765625)"/>
      <use xlink:href="#DejaVuSans-Oblique-3c3" transform="translate(462.304688 0.765625)"/>
      <use xlink:href="#DejaVuSans-32" transform="translate(530.156302 39.046875)scale(0.7)"/>
     </g>
    </g>
    <g id="line2d_21">
     <path d="M 252.009375 95.629688 
L 262.009375 95.629688 
L 272.009375 95.629688 
" style="fill: none; stroke: #cb181d; stroke-width: 1.5; stroke-linecap: square"/>
     <g>
      <use xlink:href="#m7bcb7bd8ab" x="262.009375" y="95.629688" style="fill: #cb181d; stroke: #cb181d"/>
     </g>
    </g>
    <g id="text_16">
     <!-- 1 -->
     <g transform="translate(280.009375 99.129688)scale(0.1 -0.1)">
      <use xlink:href="#DejaVuSans-31"/>
     </g>
    </g>
    <g id="line2d_22">
     <path d="M 252.009375 110.307813 
L 262.009375 110.307813 
L 272.009375 110.307813 
" style="fill: none; stroke: #ea362a; stroke-width: 1.5; stroke-linecap: square"/>
     <g>
      <use xlink:href="#m50d647925c" x="262.009375" y="110.307813" style="fill: #ea362a; stroke: #ea362a"/>
     </g>
    </g>
    <g id="text_17">
     <!-- 0.1 -->
     <g transform="translate(280.009375 113.807813)scale(0.1 -0.1)">
      <use xlink:href="#DejaVuSans-30"/>
      <use xlink:href="#DejaVuSans-2e" x="63.623047"/>
      <use xlink:href="#DejaVuSans-31" x="95.410156"/>
     </g>
    </g>
    <g id="line2d_23">
     <path d="M 252.009375 124.985938 
L 262.009375 124.985938 
L 272.009375 124.985938 
" style="fill: none; stroke: #f75c41; stroke-width: 1.5; stroke-linecap: square"/>
     <g>
      <use xlink:href="#me58e187f15" x="262.009375" y="124.985938" style="fill: #f75c41; stroke: #f75c41"/>
     </g>
    </g>
    <g id="text_18">
     <!-- 0.01 -->
     <g transform="translate(280.009375 128.485938)scale(0.1 -0.1)">
      <use xlink:href="#DejaVuSans-30"/>
      <use xlink:href="#DejaVuSans-2e" x="63.623047"/>
      <use xlink:href="#DejaVuSans-30" x="95.410156"/>
      <use xlink:href="#DejaVuSans-31" x="159.033203"/>
     </g>
    </g>
    <g id="line2d_24">
     <path d="M 252.009375 139.664063 
L 262.009375 139.664063 
L 272.009375 139.664063 
" style="fill: none; stroke: #fc8161; stroke-width: 1.5; stroke-linecap: square"/>
     <g>
      <use xlink:href="#m13fb71f675" x="262.009375" y="139.664063" style="fill: #fc8161; stroke: #fc8161"/>
     </g>
    </g>
    <g id="text_19">
     <!-- 0.001 -->
     <g transform="translate(280.009375 143.164063)scale(0.1 -0.1)">
      <use xlink:href="#DejaVuSans-30"/>
      <use xlink:href="#DejaVuSans-2e" x="63.623047"/>
      <use xlink:href="#DejaVuSans-30" x="95.410156"/>
      <use xlink:href="#DejaVuSans-30" x="159.033203"/>
      <use xlink:href="#DejaVuSans-31" x="222.65625"/>
     </g>
    </g>
    <g id="line2d_25">
     <path d="M 252.009375 154.342188 
L 262.009375 154.342188 
L 272.009375 154.342188 
" style="fill: none; stroke: #fca486; stroke-width: 1.5; stroke-linecap: square"/>
     <g>
      <use xlink:href="#m2ac6e9dc4e" x="262.009375" y="154.342188" style="fill: #fca486; stroke: #fca486"/>
     </g>
    </g>
    <g id="text_20">
     <!-- 0.0001 -->
     <g transform="translate(280.009375 157.842188)scale(0.1 -0.1)">
      <use xlink:href="#DejaVuSans-30"/>
      <use xlink:href="#DejaVuSans-2e" x="63.623047"/>
      <use xlink:href="#DejaVuSans-30" x="95.410156"/>
      <use xlink:href="#DejaVuSans-30" x="159.033203"/>
      <use xlink:href="#DejaVuSans-30" x="222.65625"/>
      <use xlink:href="#DejaVuSans-31" x="286.279297"/>
     </g>
    </g>
    <g id="line2d_26">
     <path d="M 252.009375 169.020313 
L 262.009375 169.020313 
L 272.009375 169.020313 
" style="fill: none; stroke: #fdc6b0; stroke-width: 1.5; stroke-linecap: square"/>
     <g>
      <use xlink:href="#m9a58a4c535" x="262.009375" y="169.020313" style="fill: #fdc6b0; stroke: #fdc6b0"/>
     </g>
    </g>
    <g id="text_21">
     <!-- 1e-05 -->
     <g transform="translate(280.009375 172.520313)scale(0.1 -0.1)">
      <defs>
       <path id="DejaVuSans-2d" d="M 313 2009 
L 1997 2009 
L 1997 1497 
L 313 1497 
L 313 2009 
z
" transform="scale(0.015625)"/>
      </defs>
      <use xlink:href="#DejaVuSans-31"/>
      <use xlink:href="#DejaVuSans-65" x="63.623047"/>
      <use xlink:href="#DejaVuSans-2d" x="125.146484"/>
      <use xlink:href="#DejaVuSans-30" x="161.230469"/>
      <use xlink:href="#DejaVuSans-35" x="224.853516"/>
     </g>
    </g>
   </g>
  </g>
 </g>
 <defs>
  <clipPath id="p5ab7425c56">
   <rect x="54" y="25.92" width="270" height="157.68"/>
  </clipPath>
 </defs>
</svg>
